<svg width="24" height="24" viewBox="0 0 24 24" fill="none" xmlns="http://www.w3.org/2000/svg">
<path fill-rule="evenodd" clip-rule="evenodd" d="M7.71995 12.5292C7.5795 12.3886 7.50061 12.1979 7.50061 11.9992C7.50061 11.8004 7.5795 11.6098 7.71995 11.4692L15.22 3.96918C15.2886 3.89549 15.3714 3.83639 15.4634 3.7954C15.5554 3.7544 15.6547 3.73236 15.7554 3.73059C15.8561 3.72881 15.9562 3.74733 16.0495 3.78505C16.1429 3.82278 16.2278 3.87892 16.299 3.95014C16.3702 4.02136 16.4264 4.10619 16.4641 4.19958C16.5018 4.29297 16.5203 4.393 16.5185 4.4937C16.5168 4.5944 16.4947 4.69372 16.4537 4.78572C16.4127 4.87771 16.3536 4.96052 16.28 5.02918L9.30995 11.9992L16.28 18.9692C16.3536 19.0378 16.4127 19.1206 16.4537 19.2126C16.4947 19.3046 16.5168 19.404 16.5185 19.5047C16.5203 19.6054 16.5018 19.7054 16.4641 19.7988C16.4264 19.8922 16.3702 19.977 16.299 20.0482C16.2278 20.1194 16.1429 20.1756 16.0495 20.2133C15.9562 20.251 15.8561 20.2695 15.7554 20.2678C15.6547 20.266 15.5554 20.244 15.4634 20.203C15.3714 20.162 15.2886 20.1029 15.22 20.0292L7.71995 12.5292Z" fill="white"/>
</svg>
