<svg width="25" height="24" viewBox="0 0 25 24" fill="none" xmlns="http://www.w3.org/2000/svg">
<path d="M21.5 15V18.93C21.5031 19.219 21.4435 19.5051 21.3254 19.7688C21.2073 20.0325 21.0334 20.2675 20.8158 20.4576C20.5981 20.6476 20.3419 20.7883 20.0647 20.8699C19.7875 20.9514 19.4959 20.9719 19.21 20.93C15.247 20.4209 11.566 18.6077 8.74701 15.7761C5.92803 12.9444 4.13134 9.25532 3.64004 5.29003C3.59826 5.00498 3.61856 4.71427 3.69954 4.43779C3.78053 4.16131 3.92029 3.90559 4.10926 3.68813C4.29823 3.47067 4.53195 3.29661 4.79443 3.17784C5.05691 3.05908 5.34195 2.99843 5.63004 3.00003H9.50004C9.74725 2.99853 9.98626 3.08866 10.1709 3.25302C10.3556 3.41737 10.4728 3.64431 10.5 3.89003C10.5993 5.20061 10.9382 6.48183 11.5 7.67003C11.5964 7.89506 11.6068 8.14761 11.5294 8.37983C11.452 8.61205 11.2921 8.80781 11.08 8.93003L10.22 9.42003C10.0961 9.48821 9.98799 9.58191 9.90293 9.69495C9.81786 9.80799 9.75774 9.93779 9.72655 10.0758C9.69536 10.2138 9.69381 10.3568 9.72199 10.4955C9.75017 10.6341 9.80745 10.7652 9.89004 10.88C10.8794 12.3292 12.1309 13.5807 13.58 14.57C13.6949 14.6526 13.826 14.7099 13.9646 14.7381C14.1033 14.7663 14.2463 14.7647 14.3843 14.7335C14.5223 14.7023 14.6521 14.6422 14.7651 14.5571C14.8782 14.4721 14.9719 14.364 15.04 14.24L15.53 13.38C15.6596 13.1652 15.8651 13.0068 16.1059 12.9364C16.3467 12.8661 16.6052 12.8888 16.83 13C18.0182 13.5618 19.2995 13.9008 20.61 14C20.8558 14.0272 21.0827 14.1445 21.2471 14.3291C21.4114 14.5138 21.5015 14.7528 21.5 15Z" fill="#E0E0E0"/>
</svg>
