<svg width="24" height="24" viewBox="0 0 24 24" fill="none" xmlns="http://www.w3.org/2000/svg">
<path fill-rule="evenodd" clip-rule="evenodd" d="M5.46995 5.47015C5.61058 5.3297 5.8012 5.25081 5.99995 5.25081C6.1987 5.25081 6.38933 5.3297 6.52995 5.47015L12 10.9402L17.4699 5.47015C17.5386 5.39647 17.6214 5.33736 17.7134 5.29637C17.8054 5.25538 17.9047 5.23334 18.0054 5.23156C18.1061 5.22979 18.2062 5.24831 18.2995 5.28603C18.3929 5.32375 18.4778 5.3799 18.549 5.45112C18.6202 5.52233 18.6764 5.60717 18.7141 5.70056C18.7518 5.79394 18.7703 5.89397 18.7685 5.99468C18.7668 6.09538 18.7447 6.19469 18.7037 6.28669C18.6627 6.37869 18.6036 6.46149 18.53 6.53015L13.06 12.0002L18.53 17.4702C18.6036 17.5388 18.6627 17.6216 18.7037 17.7136C18.7447 17.8056 18.7668 17.9049 18.7685 18.0056C18.7703 18.1063 18.7518 18.2064 18.7141 18.2998C18.6764 18.3931 18.6202 18.478 18.549 18.5492C18.4778 18.6204 18.3929 18.6766 18.2995 18.7143C18.2062 18.752 18.1061 18.7705 18.0054 18.7687C17.9047 18.767 17.8054 18.7449 17.7134 18.7039C17.6214 18.6629 17.5386 18.6038 17.4699 18.5302L12 13.0602L6.52995 18.5302C6.38778 18.6626 6.19973 18.7348 6.00543 18.7313C5.81113 18.7279 5.62574 18.6492 5.48833 18.5118C5.35092 18.3744 5.2722 18.189 5.26878 17.9947C5.26535 17.8004 5.33747 17.6123 5.46995 17.4702L10.9399 12.0002L5.46995 6.53015C5.3295 6.38953 5.25061 6.1989 5.25061 6.00015C5.25061 5.8014 5.3295 5.61078 5.46995 5.47015Z" fill="white"/>
</svg>
