<svg width="25" height="24" viewBox="0 0 25 24" fill="none" xmlns="http://www.w3.org/2000/svg">
<path d="M13.9362 2.9276C14.6392 2.22465 15.7788 2.22465 16.4818 2.9276L21.573 8.01877C22.276 8.72172 22.276 9.8614 21.573 10.5644L11.7367 20.4006H17.9C18.2313 20.4006 18.5 20.6693 18.5 21.0006C18.5 21.3321 18.2313 21.6006 17.9 21.6006H9.88349C9.39176 21.6264 8.89144 21.4516 8.51584 21.0759L3.42466 15.9848C2.72173 15.2818 2.72173 14.1422 3.42466 13.4392L13.9362 2.9276ZM12.2371 18.2032L6.29743 12.2634L4.2732 14.2877C4.03888 14.5221 4.03888 14.9019 4.2732 15.1362L9.36436 20.2274C9.59867 20.4617 9.97858 20.4617 10.2129 20.2274L12.2371 18.2032Z" fill="#E0E0E0"/>
</svg>
