<svg width="28" height="28" viewBox="0 0 28 28" fill="none" xmlns="http://www.w3.org/2000/svg">
<path fill-rule="evenodd" clip-rule="evenodd" d="M3.75663 3.75687C3.92069 3.59301 4.14309 3.50098 4.37496 3.50098C4.60684 3.50098 4.82923 3.59301 4.9933 3.75687L9.62496 8.38854V5.25021C9.62496 5.01814 9.71715 4.79558 9.88124 4.63149C10.0453 4.46739 10.2679 4.37521 10.5 4.37521C10.732 4.37521 10.9546 4.46739 11.1187 4.63149C11.2828 4.79558 11.375 5.01814 11.375 5.25021V10.5002C11.375 10.7323 11.2828 10.9548 11.1187 11.1189C10.9546 11.283 10.732 11.3752 10.5 11.3752H5.24996C5.0179 11.3752 4.79534 11.283 4.63124 11.1189C4.46715 10.9548 4.37496 10.7323 4.37496 10.5002C4.37496 10.2681 4.46715 10.0456 4.63124 9.88149C4.79534 9.71739 5.0179 9.62521 5.24996 9.62521H8.3883L3.75663 4.99354C3.59277 4.82948 3.50073 4.60708 3.50073 4.37521C3.50073 4.14333 3.59277 3.92094 3.75663 3.75687ZM24.2433 3.75687C24.4072 3.92094 24.4992 4.14333 24.4992 4.37521C24.4992 4.60708 24.4072 4.82948 24.2433 4.99354L19.6116 9.62521H22.75C22.982 9.62521 23.2046 9.71739 23.3687 9.88149C23.5328 10.0456 23.625 10.2681 23.625 10.5002C23.625 10.7323 23.5328 10.9548 23.3687 11.1189C23.2046 11.283 22.982 11.3752 22.75 11.3752H17.5C17.2679 11.3752 17.0453 11.283 16.8812 11.1189C16.7171 10.9548 16.625 10.7323 16.625 10.5002V5.25021C16.625 5.01814 16.7171 4.79558 16.8812 4.63149C17.0453 4.46739 17.2679 4.37521 17.5 4.37521C17.732 4.37521 17.9546 4.46739 18.1187 4.63149C18.2828 4.79558 18.375 5.01814 18.375 5.25021V8.38854L23.0066 3.75687C23.1707 3.59301 23.3931 3.50098 23.625 3.50098C23.8568 3.50098 24.0792 3.59301 24.2433 3.75687ZM4.37496 17.5002C4.37496 17.2681 4.46715 17.0456 4.63124 16.8815C4.79534 16.7174 5.0179 16.6252 5.24996 16.6252H10.5C10.732 16.6252 10.9546 16.7174 11.1187 16.8815C11.2828 17.0456 11.375 17.2681 11.375 17.5002V22.7502C11.375 22.9823 11.2828 23.2048 11.1187 23.3689C10.9546 23.533 10.732 23.6252 10.5 23.6252C10.2679 23.6252 10.0453 23.533 9.88124 23.3689C9.71715 23.2048 9.62496 22.9823 9.62496 22.7502V19.6119L4.9933 24.2435C4.82743 24.3981 4.60804 24.4822 4.38135 24.4782C4.15467 24.4742 3.93839 24.3824 3.77807 24.2221C3.61776 24.0618 3.52592 23.8455 3.52193 23.6188C3.51793 23.3921 3.60207 23.1727 3.75663 23.0069L8.3883 18.3752H5.24996C5.0179 18.3752 4.79534 18.283 4.63124 18.1189C4.46715 17.9548 4.37496 17.7323 4.37496 17.5002ZM16.625 17.5002C16.625 17.2681 16.7171 17.0456 16.8812 16.8815C17.0453 16.7174 17.2679 16.6252 17.5 16.6252H22.75C22.982 16.6252 23.2046 16.7174 23.3687 16.8815C23.5328 17.0456 23.625 17.2681 23.625 17.5002C23.625 17.7323 23.5328 17.9548 23.3687 18.1189C23.2046 18.283 22.982 18.3752 22.75 18.3752H19.6116L24.2433 23.0069C24.3293 23.087 24.3982 23.1836 24.446 23.2909C24.4939 23.3982 24.5196 23.5141 24.5216 23.6316C24.5237 23.7491 24.5021 23.8658 24.4581 23.9747C24.4141 24.0837 24.3486 24.1827 24.2655 24.2657C24.1824 24.3488 24.0834 24.4143 23.9745 24.4583C23.8655 24.5024 23.7488 24.524 23.6314 24.5219C23.5139 24.5198 23.398 24.4941 23.2907 24.4463C23.1833 24.3985 23.0867 24.3295 23.0066 24.2435L18.375 19.6119V22.7502C18.375 22.9823 18.2828 23.2048 18.1187 23.3689C17.9546 23.533 17.732 23.6252 17.5 23.6252C17.2679 23.6252 17.0453 23.533 16.8812 23.3689C16.7171 23.2048 16.625 22.9823 16.625 22.7502V17.5002Z" fill="white"/>
</svg>
