<svg width="25" height="24" viewBox="0 0 25 24" fill="none" xmlns="http://www.w3.org/2000/svg">
<path fill-rule="evenodd" clip-rule="evenodd" d="M9.50004 2.25C9.69896 2.25 9.88972 2.32902 10.0304 2.46967C10.171 2.61032 10.25 2.80109 10.25 3V4.506C12.0364 4.53293 13.8201 4.65678 15.593 4.877C15.6908 4.88921 15.7852 4.92056 15.8709 4.96926C15.9565 5.01796 16.0317 5.08305 16.0922 5.16082C16.1527 5.23859 16.1973 5.32751 16.2235 5.42251C16.2496 5.51751 16.2568 5.61673 16.2445 5.7145C16.2323 5.81227 16.201 5.90668 16.1523 5.99233C16.1036 6.07798 16.0385 6.1532 15.9607 6.2137C15.883 6.2742 15.794 6.31879 15.699 6.34492C15.604 6.37105 15.5048 6.37821 15.407 6.366C14.747 6.283 14.084 6.215 13.417 6.16C12.8337 8.43576 11.8261 10.581 10.447 12.483C10.765 12.867 11.097 13.236 11.447 13.59C11.5865 13.7319 11.664 13.9234 11.6623 14.1224C11.6606 14.3213 11.5799 14.5115 11.438 14.651C11.2962 14.7905 11.1047 14.8679 10.9057 14.8662C10.7067 14.8646 10.5165 14.7839 10.377 14.642C10.0739 14.3338 9.78137 14.0153 9.50004 13.687C7.92143 15.5318 6.00081 17.0538 3.84404 18.169C3.66728 18.2602 3.46151 18.2775 3.272 18.217C3.0825 18.1566 2.92478 18.0233 2.83354 17.8465C2.74231 17.6697 2.72503 17.464 2.78551 17.2745C2.84599 17.085 2.97928 16.9272 3.15604 16.836C5.22966 15.7634 7.06508 14.2828 8.55204 12.483C7.67961 11.2785 6.95382 9.97429 6.39004 8.598C6.31916 8.41482 6.32297 8.21115 6.40065 8.03074C6.47833 7.85034 6.62367 7.70761 6.80545 7.63322C6.98724 7.55883 7.19095 7.55872 7.37281 7.63291C7.55467 7.70711 7.70017 7.84968 7.77804 8.03C8.23789 9.15237 8.8151 10.223 9.50004 11.224C10.5789 9.64736 11.387 7.90171 11.891 6.059C9.12137 5.92164 6.345 6.02436 3.59304 6.366C3.39559 6.39067 3.19643 6.33588 3.03936 6.2137C2.8823 6.09152 2.78021 5.91195 2.75554 5.7145C2.73088 5.51705 2.78566 5.31788 2.90784 5.16082C3.03002 5.00376 3.20959 4.90166 3.40704 4.877C5.17998 4.65633 6.96363 4.53248 8.75004 4.506V3C8.75004 2.80109 8.82906 2.61032 8.96972 2.46967C9.11037 2.32902 9.30113 2.25 9.50004 2.25ZM16.25 9C16.3929 8.99995 16.5327 9.04066 16.6532 9.11737C16.7736 9.19407 16.8697 9.30357 16.93 9.433L22.18 20.683C22.2217 20.7723 22.2453 20.8689 22.2496 20.9674C22.2539 21.0658 22.2387 21.1641 22.205 21.2567C22.1713 21.3493 22.1197 21.4343 22.0531 21.5069C21.9866 21.5796 21.9063 21.6384 21.817 21.68C21.6367 21.7641 21.4303 21.7731 21.2434 21.705C21.0564 21.6369 20.9041 21.4973 20.82 21.317L19.622 18.75H12.878L11.68 21.317C11.596 21.4973 11.4437 21.6369 11.2567 21.705C11.0698 21.7731 10.8634 21.7641 10.683 21.68C10.5027 21.5959 10.3631 21.4437 10.2951 21.2567C10.227 21.0697 10.236 20.8633 10.32 20.683L15.57 9.433C15.6304 9.30357 15.7265 9.19407 15.8469 9.11737C15.9674 9.04066 16.1072 8.99995 16.25 9ZM13.578 17.25H18.922L16.25 11.524L13.578 17.25Z" fill="#E0E0E0"/>
</svg>
