<svg width="52" height="52" viewBox="0 0 52 52" fill="none" xmlns="http://www.w3.org/2000/svg">
<path fill-rule="evenodd" clip-rule="evenodd" d="M19.5 4.875C19.931 4.875 20.3443 5.0462 20.649 5.35095C20.9538 5.6557 21.125 6.06902 21.125 6.5V9.763C24.9955 9.82134 28.86 10.0897 32.7015 10.5668C32.9133 10.5933 33.1179 10.6612 33.3034 10.7667C33.489 10.8722 33.652 11.0133 33.7831 11.1818C33.9142 11.3503 34.0108 11.5429 34.0674 11.7488C34.124 11.9546 34.1395 12.1696 34.1131 12.3814C34.0866 12.5932 34.0187 12.7978 33.9132 12.9834C33.8077 13.169 33.6666 13.3319 33.4981 13.463C33.3296 13.5941 33.137 13.6907 32.9311 13.7473C32.7253 13.8039 32.5103 13.8195 32.2985 13.793C30.8685 13.6132 29.432 13.4658 27.9868 13.3467C26.7229 18.2775 24.5397 22.9254 21.5518 27.0465C22.2408 27.8785 22.9602 28.678 23.7185 29.445C24.0207 29.7524 24.1885 30.1673 24.1848 30.5985C24.1812 31.0296 24.0064 31.4416 23.699 31.7438C23.3916 32.0461 22.9766 32.2138 22.5455 32.2102C22.1144 32.2065 21.7024 32.0318 21.4002 31.7243C20.7433 31.0565 20.1095 30.3664 19.5 29.6552C16.0797 33.6523 11.9183 36.9498 7.24532 39.3662C6.86232 39.5638 6.41649 39.6013 6.00589 39.4702C5.5953 39.3392 5.25358 39.0504 5.0559 38.6674C4.85823 38.2844 4.82079 37.8386 4.95183 37.428C5.08287 37.0174 5.37166 36.6757 5.75465 36.478C10.2475 34.1541 14.2242 30.946 17.446 27.0465C15.5557 24.4367 13.9832 21.611 12.7617 18.629C12.6081 18.2321 12.6163 17.7908 12.7846 17.3999C12.9529 17.0091 13.2678 16.6998 13.6617 16.5386C14.0556 16.3775 14.4969 16.3772 14.891 16.538C15.285 16.6987 15.6003 17.0076 15.769 17.3983C16.7653 19.8301 18.0159 22.1498 19.5 24.3187C21.8374 20.9026 23.5883 17.1204 24.6805 13.1278C18.6795 12.8302 12.6641 13.0528 6.70149 13.793C6.27367 13.8464 5.84215 13.7277 5.50185 13.463C5.16154 13.1983 4.94034 12.8092 4.8869 12.3814C4.83346 11.9536 4.95216 11.5221 5.21688 11.1818C5.4816 10.8415 5.87067 10.6203 6.29849 10.5668C10.1398 10.0887 14.0044 9.82038 17.875 9.763V6.5C17.875 6.06902 18.0462 5.6557 18.3509 5.35095C18.6557 5.0462 19.069 4.875 19.5 4.875ZM34.125 19.5C34.4344 19.4999 34.7374 19.5881 34.9984 19.7543C35.2594 19.9205 35.4675 20.1577 35.5983 20.4382L46.9733 44.8132C47.0635 45.0066 47.1147 45.216 47.124 45.4293C47.1333 45.6425 47.1005 45.8555 47.0275 46.0561C46.9544 46.2567 46.8426 46.441 46.6984 46.5983C46.5541 46.7557 46.3803 46.8831 46.1868 46.9733C45.7961 47.1555 45.349 47.175 44.9438 47.0275C44.5387 46.88 44.2088 46.5776 44.0266 46.1868L41.431 40.625H26.819L24.2233 46.1868C24.0412 46.5776 23.7112 46.88 23.3061 47.0275C22.901 47.175 22.4539 47.1555 22.0632 46.9733C21.6724 46.7912 21.37 46.4612 21.2225 46.0561C21.075 45.651 21.0945 45.2039 21.2767 44.8132L32.6517 20.4382C32.7824 20.1577 32.9906 19.9205 33.2516 19.7543C33.5126 19.5881 33.8156 19.4999 34.125 19.5ZM28.3357 37.375H39.9143L34.125 24.9687L28.3357 37.375Z" fill="url(#paint0_linear_1914_2534)"/>
<defs>
<linearGradient id="paint0_linear_1914_2534" x1="12.0001" y1="13" x2="26" y2="47.1256" gradientUnits="userSpaceOnUse">
<stop stop-color="#3067FF"/>
<stop offset="1" stop-color="#62C9FF"/>
</linearGradient>
</defs>
</svg>
