<svg width="52" height="52" viewBox="0 0 52 52" fill="none" xmlns="http://www.w3.org/2000/svg">
<path d="M29.7172 41.4149L17.5297 8.91488C17.37 8.48895 17.0841 8.1219 16.7103 7.86279C16.3364 7.60368 15.8924 7.46484 15.4375 7.46484C14.9826 7.46484 14.5386 7.60368 14.1647 7.86279C13.7909 8.1219 13.505 8.48895 13.3453 8.91488L1.15781 41.4149C0.956233 41.9683 0.981342 42.579 1.22767 43.114C1.474 43.649 1.92162 44.0651 2.47317 44.2718C3.02471 44.4785 3.63557 44.4591 4.17285 44.2177C4.71013 43.9764 5.13038 43.5326 5.34218 42.983L9.01468 33.1904C9.02915 33.1516 9.05508 33.1183 9.08901 33.0947C9.12295 33.0711 9.16327 33.0584 9.2046 33.0583H21.6704C21.7117 33.0584 21.752 33.0711 21.786 33.0947C21.8199 33.1183 21.8458 33.1516 21.8603 33.1904L25.5328 42.983C25.7446 43.5326 26.1649 43.9764 26.7021 44.2177C27.2394 44.4591 27.8503 44.4785 28.4018 44.2718C28.9534 44.0651 29.401 43.649 29.6473 43.114C29.8936 42.579 29.9188 41.9683 29.7172 41.4149ZM10.8428 28.3133L15.2476 16.5676C15.2622 16.5291 15.2882 16.4959 15.3221 16.4725C15.356 16.4491 15.3963 16.4365 15.4375 16.4365C15.4787 16.4365 15.519 16.4491 15.5529 16.4725C15.5868 16.4959 15.6128 16.5291 15.6274 16.5676L20.0322 28.3154C20.0437 28.346 20.0475 28.3791 20.0435 28.4116C20.0394 28.4441 20.0275 28.4752 20.0089 28.5021C19.9902 28.529 19.9653 28.5511 19.9363 28.5663C19.9073 28.5815 19.875 28.5895 19.8423 28.5896H11.0327C11 28.5895 10.9677 28.5815 10.9387 28.5663C10.9097 28.5511 10.8848 28.529 10.8661 28.5021C10.8474 28.4752 10.8356 28.4441 10.8315 28.4116C10.8275 28.3791 10.8313 28.346 10.8428 28.3154V28.3133Z" fill="url(#paint0_linear_1916_2541)"/>
<path d="M40.7032 17.2151C36.466 17.1847 32.6716 19.6394 31.0548 23.4511C30.8231 23.9965 30.8176 24.6117 31.0395 25.1611C31.2614 25.7106 31.6925 26.1495 32.238 26.3811C32.7834 26.6128 33.3986 26.6183 33.9481 26.3964C34.4976 26.1745 34.9364 25.7434 35.168 25.1979C36.0699 23.0763 38.1916 21.7001 40.5834 21.6839C43.8659 21.6615 46.5156 24.3753 46.5156 27.6608C46.5156 27.7004 46.5003 27.7384 46.4728 27.7668C46.4453 27.7952 46.4079 27.8119 46.3684 27.8132C44.1421 27.8751 41.5015 28.0234 39.1452 28.3007C33.5847 28.9547 30.2656 31.9864 30.2656 36.4104C30.2656 38.7657 31.1553 40.8792 32.7712 42.3701C34.2875 43.7666 36.3594 44.5354 38.5938 44.5354C41.7422 44.5354 44.4529 43.7229 46.5095 42.1772H46.5156C46.5144 42.4706 46.5709 42.7614 46.682 43.0329C46.7931 43.3045 46.9566 43.5515 47.1632 43.7599C47.3698 43.9683 47.6154 44.1339 47.886 44.2474C48.1566 44.3609 48.4469 44.4199 48.7404 44.4212C49.0338 44.4224 49.3246 44.3659 49.5961 44.2548C49.8677 44.1437 50.1147 43.9802 50.3231 43.7736C50.5315 43.567 50.6971 43.3214 50.8106 43.0508C50.9241 42.7802 50.9831 42.4899 50.9844 42.1965V27.673C50.9844 21.9672 46.4141 17.2568 40.7032 17.2151ZM38.5938 40.0667C36.8134 40.0667 34.7344 39.109 34.7344 36.4104C34.7344 35.3268 35.1234 34.5681 35.9968 33.9496C36.8469 33.3473 38.1499 32.9177 39.6673 32.739C41.8123 32.4861 44.2193 32.3469 46.283 32.285C46.3106 32.2849 46.3379 32.2905 46.3632 32.3013C46.3885 32.3122 46.4114 32.3281 46.4304 32.348C46.4494 32.368 46.4641 32.3916 46.4737 32.4174C46.4833 32.4432 46.4875 32.4707 46.4862 32.4983C46.2109 37.5886 43.617 40.0667 38.5938 40.0667Z" fill="url(#paint1_linear_1916_2541)"/>
<defs>
<linearGradient id="paint0_linear_1916_2541" x1="4.99994" y1="38.4997" x2="22.9999" y2="25.9997" gradientUnits="userSpaceOnUse">
<stop stop-color="#3067FF"/>
<stop offset="1" stop-color="#62C9FF"/>
</linearGradient>
<linearGradient id="paint1_linear_1916_2541" x1="40.625" y1="17.2148" x2="40.625" y2="44.5354" gradientUnits="userSpaceOnUse">
<stop stop-color="#3067FF"/>
<stop offset="1" stop-color="#62C9FF"/>
</linearGradient>
</defs>
</svg>
