<svg width="52" height="52" viewBox="0 0 52 52" fill="none" xmlns="http://www.w3.org/2000/svg">
<path d="M29.1119 6.34249C30.635 4.81943 33.1042 4.81943 34.6273 6.34249L45.6583 17.3733C47.1814 18.8964 47.1814 21.3657 45.6583 22.8888L24.3463 44.2007H37.7C38.4179 44.2007 39 44.7829 39 45.5007C39 46.2188 38.4179 46.8007 37.7 46.8007H20.331C19.2656 46.8566 18.1816 46.4778 17.3678 45.6637L6.33688 34.633C4.81385 33.1099 4.81385 30.6407 6.33688 29.1176L29.1119 6.34249ZM25.4306 39.4396L12.5612 26.5701L8.17537 30.9561C7.66769 31.4638 7.66769 32.2867 8.17537 32.7945L19.2062 43.8253C19.7139 44.3331 20.537 44.3331 21.0447 43.8253L25.4306 39.4396Z" fill="url(#paint0_linear_1916_2549)"/>
<defs>
<linearGradient id="paint0_linear_1916_2549" x1="47" y1="47.0002" x2="47" y2="23.0002" gradientUnits="userSpaceOnUse">
<stop stop-color="#3067FF"/>
<stop offset="1" stop-color="#62C9FF"/>
</linearGradient>
</defs>
</svg>
