<svg width="22" height="22" viewBox="0 0 22 22" fill="none" xmlns="http://www.w3.org/2000/svg">
<path fill-rule="evenodd" clip-rule="evenodd" d="M11 2.0625C6.06375 2.0625 2.0625 6.06375 2.0625 11C2.0625 15.9363 6.06375 19.9375 11 19.9375C15.9363 19.9375 19.9375 15.9363 19.9375 11C19.9375 6.06375 15.9363 2.0625 11 2.0625ZM11.6875 8.25C11.6875 8.06766 11.6151 7.8928 11.4861 7.76386C11.3572 7.63493 11.1823 7.5625 11 7.5625C10.8177 7.5625 10.6428 7.63493 10.5139 7.76386C10.3849 7.8928 10.3125 8.06766 10.3125 8.25V10.3125H8.25C8.06766 10.3125 7.8928 10.3849 7.76386 10.5139C7.63493 10.6428 7.5625 10.8177 7.5625 11C7.5625 11.1823 7.63493 11.3572 7.76386 11.4861C7.8928 11.6151 8.06766 11.6875 8.25 11.6875H10.3125V13.75C10.3125 13.9323 10.3849 14.1072 10.5139 14.2361C10.6428 14.3651 10.8177 14.4375 11 14.4375C11.1823 14.4375 11.3572 14.3651 11.4861 14.2361C11.6151 14.1072 11.6875 13.9323 11.6875 13.75V11.6875H13.75C13.9323 11.6875 14.1072 11.6151 14.2361 11.4861C14.3651 11.3572 14.4375 11.1823 14.4375 11C14.4375 10.8177 14.3651 10.6428 14.2361 10.5139C14.1072 10.3849 13.9323 10.3125 13.75 10.3125H11.6875V8.25Z" fill="white"/>
</svg>
